<?xml version="1.0" standalone="no"?>
<!DOCTYPE svg PUBLIC "-//W3C//DTD SVG 20010904//EN"
 "http://www.w3.org/TR/2001/REC-SVG-20010904/DTD/svg10.dtd">
<svg version="1.0" xmlns="http://www.w3.org/2000/svg"
 width="956.000000pt" height="956.000000pt" viewBox="0 0 956.000000 956.000000"
 preserveAspectRatio="xMidYMid meet">
<metadata>
Created by potrace 1.11, written by Peter Selinger 2001-2013
</metadata>
<g transform="translate(0.000000,956.000000) scale(0.100000,-0.100000)"
fill="#000000" stroke="none">
<path d="M4845 8770 c-318 -45 -558 -232 -615 -479 -17 -74 -8 -211 20 -284
12 -31 37 -80 55 -107 l33 -49 -59 -118 c-88 -175 -112 -277 -112 -473 0 -136
3 -167 26 -253 30 -114 103 -272 170 -369 l47 -68 -2023 -2 -2022 -3 -3 -2633
-2 -2632 -70 0 -70 0 2 -248 3 -247 4533 -3 4532 -2 0 250 0 250 -75 0 -75 0
-2 2632 -3 2633 -968 3 -968 2 20 29 c43 61 112 220 136 316 29 113 41 271 28
362 l-10 62 54 37 c188 129 280 356 228 558 -58 222 -249 399 -520 482 -82 25
-104 28 -260 28 -182 1 -228 -7 -361 -60 l-65 -26 -107 35 c-181 61 -333 87
-532 94 l-175 6 -51 48 c-65 60 -170 129 -252 163 -136 57 -347 86 -487 66z"/>
</g>
</svg>
